<?xml version="1.0" encoding="iso-8859-1"?>
<!-- Uploaded to: SVG Repo, www.svgrepo.com, Generator: SVG Repo Mixer Tools -->
<svg fill="#000000" height="800px" width="800px" version="1.1" id="Layer_1" xmlns="http://www.w3.org/2000/svg" xmlns:xlink="http://www.w3.org/1999/xlink" 
	 viewBox="0 0 330 330" xml:space="preserve">
<g id="XMLID_88_">
	<path id="XMLID_89_" d="M150,315c0,8.284,6.716,15,15,15s15-6.716,15-15v-85.039h-30V315z"/>
	<path id="XMLID_90_" d="M245,59.961h-1.667C229.162,24.136,194.356,0,155,0c-50.928,0-92.625,40.283-94.902,90.659
		C26.17,95.482,0,124.722,0,159.961c0,38.598,31.402,70,70,70h80v-30v-58.746l-19.394,19.393c-5.857,5.858-15.355,5.858-21.213,0
		c-5.858-5.858-5.858-15.355,0-21.213l44.997-44.998c0.351-0.35,0.72-0.682,1.104-0.997c0.171-0.141,0.353-0.264,0.529-0.396
		c0.214-0.161,0.424-0.327,0.647-0.477c0.216-0.144,0.439-0.269,0.659-0.401c0.199-0.119,0.394-0.244,0.599-0.354
		c0.227-0.121,0.459-0.224,0.69-0.332c0.213-0.1,0.422-0.207,0.639-0.297c0.227-0.093,0.457-0.169,0.687-0.251
		c0.232-0.083,0.462-0.172,0.699-0.245c0.231-0.07,0.467-0.121,0.7-0.18c0.24-0.06,0.479-0.127,0.723-0.176
		c0.273-0.054,0.549-0.087,0.823-0.125c0.21-0.03,0.415-0.07,0.628-0.091c0.986-0.097,1.979-0.097,2.965,0
		c0.213,0.021,0.418,0.061,0.628,0.091c0.274,0.039,0.55,0.071,0.823,0.125c0.244,0.049,0.482,0.116,0.723,0.176
		c0.233,0.059,0.469,0.11,0.7,0.18c0.237,0.072,0.467,0.161,0.699,0.245c0.23,0.082,0.46,0.158,0.686,0.251
		c0.218,0.09,0.427,0.197,0.64,0.297c0.231,0.109,0.464,0.211,0.69,0.332c0.205,0.11,0.399,0.235,0.599,0.354
		c0.221,0.132,0.443,0.257,0.659,0.401c0.224,0.149,0.434,0.315,0.647,0.477c0.177,0.132,0.358,0.255,0.529,0.396
		c0.384,0.314,0.753,0.646,1.104,0.997l44.997,44.998c5.858,5.858,5.858,15.355,0,21.213c-2.929,2.929-6.768,4.394-10.606,4.394
		s-7.678-1.464-10.606-4.394L180,141.215v58.746v30h65c46.869,0,85-38.131,85-85C330,98.092,291.869,59.961,245,59.961z"/>
</g>
</svg>